<?xml version="1.0" encoding="UTF-8"?>
<svg id="Layer_1" xmlns="http://www.w3.org/2000/svg" version="1.1" viewBox="0 0 24 24">
  <!-- Generator: Adobe Illustrator 30.3.0, SVG Export Plug-In . SVG Version: 2.1.3 Build 182)  -->
  <defs>
    <style>
      .st0 {
        fill: none;
        stroke: #5a6b9e;
        stroke-linecap: round;
        stroke-linejoin: round;
        stroke-width: 2px;
      }
    </style>
  </defs>
  <path class="st0" d="M11.02,2.81c.1-.54.62-.9,1.17-.8.41.08.72.39.8.8l1.05,5.56c.15.81.79,1.44,1.59,1.59l5.56,1.05c.54.1.9.62.8,1.17-.08.41-.39.72-.8.8l-5.56,1.05c-.81.15-1.44.79-1.59,1.59l-1.05,5.56c-.1.54-.62.9-1.17.8-.41-.08-.72-.39-.8-.8l-1.05-5.56c-.15-.81-.79-1.44-1.59-1.59l-5.56-1.05c-.54-.1-.9-.62-.8-1.17.08-.41.39-.72.8-.8l5.56-1.05c.81-.15,1.44-.79,1.59-1.59l1.05-5.56Z"/>
  <path class="st0" d="M20,2v4"/>
  <path class="st0" d="M22,4h-4"/>
  <circle class="st0" cx="4" cy="20" r="2"/>
</svg>